# xmcd
# 
# Track frame offsets:
#     150
#     14928
#     24689
#     35557
#     46057
#     56018
#     68254
#     81940
#     96910
#     110458
#     123724
# 
# Disc length: 1834
# 
# Revision: 5
# Processed by: cddbd v1.5.2PL0 Copyright (c) Steve Scherf et al.
# Submitted via: fre:ac v1.0.31
# 
DISCID=9407280b
DTITLE=Otis Redding - The Immortal Otis Redding [2012 Rmaster]
DYEAR=1968
DGENRE=Soul
TTITLE0=I've Got Dreams To Remember
TTITLE1=You've Made A Man Out Of Me
TTITLE2=Nobody's Fault But Mine
TTITLE3=Hard To Handle
TTITLE4=Thousand Miles Away
TTITLE5=The Happy Song (Dum-Dum-De-De-De-Dum-Dum)
TTITLE6=Think About It
TTITLE7=A Waste Of Time
TTITLE8=Champagne And Wine
TTITLE9=A Fool For You
TTITLE10=Amen
EXTD=YEAR: 1968
EXTT0=
EXTT1=
EXTT2=
EXTT3=
EXTT4=
EXTT5=
EXTT6=
EXTT7=
EXTT8=
EXTT9=
EXTT10=
PLAYORDER=
